<svg width="800" height="800" viewBox="0 0 800 800" fill="none" xmlns="http://www.w3.org/2000/svg">
<g clip-path="url(#clip0_25_5)">
<path d="M800 0H0V800H800V0Z" fill="url(#paint0_radial_25_5)"/>
<path d="M502.085 734.955C568.356 734.955 622.079 722.959 622.079 708.16C622.079 693.362 568.356 681.365 502.085 681.365C435.814 681.365 382.091 693.362 382.091 708.16C382.091 722.959 435.814 734.955 502.085 734.955Z" fill="url(#paint1_radial_25_5)"/>
<path d="M317.5 350.334C317.5 350.334 317.5 360.834 330 373.334C342.5 385.834 359 396.667 359 396.667L308 400.334C308 400.334 333.167 412.667 351.667 413.667C370.167 414.667 385 399.334 385 399.334L317.5 350.334Z" fill="#00A6A6"/>
<path d="M382 344.334C398.651 331.383 409.854 330.198 425 322.334C444.5 312.209 439.5 302.709 447 294.334C454.496 285.964 459.5 295.084 458.875 302.709C458.397 308.542 455 316.334 455 316.334C455 316.334 473.5 304.334 479 308.834C484.5 313.334 473 328.834 473 328.834C473 328.834 489.5 324.834 498.5 332.334C507.5 339.834 503 347.834 498 347.834C493 347.834 481.5 345.834 481.5 345.834C481.5 345.834 502.65 356.312 514 382.834C530.333 421.001 519.5 476.834 542 515.834C564.5 554.834 593 572.334 625.5 571.834C658 571.334 661 563.334 670.5 544.834C680 526.334 691 499.834 700 501.334C709 502.834 699.5 528.834 695.5 537.334C691.5 545.834 684.5 555.334 684.5 555.334C684.5 555.334 718.5 511.334 729.5 514.834C740.5 518.334 731.5 534.334 721.5 547.334C711.5 560.334 698.5 571.334 698.5 571.334C698.5 571.334 738.5 547.334 747.5 553.334C756.5 559.334 748.667 573.001 736.667 582.001C724.667 591.001 704 597.001 685.5 597.834C669.392 598.56 658.5 594.334 649 596.834C639.5 599.334 596.5 651.834 522.5 650.334C448.5 648.834 395.383 617.274 362 569.834C330.112 524.518 342.596 423.854 345.5 409.334C349 391.834 359.5 361.834 382 344.334Z" fill="url(#paint2_linear_25_5)"/>
<path d="M448.333 486.001C444.314 475.873 441.666 455.334 457.666 442.668C473.666 430.001 526.999 443.335 571.666 426.668C602.683 415.094 628.999 382.668 648.333 380.668C667.666 378.668 667 396.668 661 408.001C655 419.334 647.667 424.668 647.667 424.668C647.667 424.668 669.817 405.039 681.667 412.001C695 419.834 668.334 448.668 668.334 448.668C668.334 448.668 683.334 438.335 692.334 446.668C704.834 458.242 667.667 508.001 633.667 527.335C599.667 546.668 560 556.335 511.5 540.835C470.557 527.749 456.667 507.001 448.333 486.001Z" fill="url(#paint3_linear_25_5)"/>
<path d="M412.333 430.667C429.638 430.667 443.666 416.639 443.666 399.334C443.666 382.029 429.638 368.001 412.333 368.001C395.028 368.001 381 382.029 381 399.334C381 416.639 395.028 430.667 412.333 430.667Z" fill="white"/>
<path d="M405 408.667C412.732 408.667 419 402.399 419 394.667C419 386.935 412.732 380.667 405 380.667C397.268 380.667 391 386.935 391 394.667C391 402.399 397.268 408.667 405 408.667Z" fill="#00A6A6"/>
<path d="M412 409.667C414.945 409.667 417.333 407.28 417.333 404.334C417.333 401.389 414.945 399.001 412 399.001C409.055 399.001 406.667 401.389 406.667 404.334C406.667 407.28 409.055 409.667 412 409.667Z" fill="white"/>
<path d="M499 632.667C496.333 614 477 556 427.667 496.667C392.312 454.145 357.986 443.81 341.372 441.367C338.213 478.4 340.01 536.32 362 569.834C390.46 613.209 437.625 641.883 499.77 648.835C499.923 643.565 499.759 637.982 499 632.667Z" fill="url(#paint4_linear_25_5)"/>
<path d="M268.521 350.175C268.521 350.175 257.237 336.373 253.854 319.508C250.813 304.347 252.783 295.676 252.783 295.676C252.783 295.676 373.188 294.508 396.521 212.175C417.042 139.764 350.521 95.5076 223.521 92.1746C103.444 89.0226 49.1879 128.842 45.1879 187.508C41.1879 246.174 101.854 284.175 150.521 293.508C199.188 302.841 221.805 299.118 221.805 299.118C221.805 299.118 225.045 320.782 242.521 334.841C261.429 350.052 268.521 350.175 268.521 350.175Z" fill="url(#paint5_linear_25_5)"/>
<path d="M127.331 207.231C127.177 201.148 127.1 195.393 127.1 189.965C127.1 184.536 127.408 177.472 128.024 168.771C134.607 167.771 141.036 167.27 147.311 167.27V174.373C142.961 174.373 138.919 174.508 135.185 174.777C135.031 179.089 134.934 182.4 134.896 184.71C137.822 184.286 141.287 184.036 145.29 183.959L146.388 190.311C143.808 190.35 139.939 190.638 134.78 191.177C134.78 195.797 134.8 199.127 134.838 201.168C138.187 200.898 142.191 200.321 146.85 199.435L147.831 205.787C144.559 207.289 140.69 208.039 136.224 208.039L127.331 207.231ZM151.485 189.965C152.062 186.962 153.159 184.421 154.776 182.342C156.393 180.225 158.51 179.166 161.128 179.166C163.746 179.166 165.671 180.263 166.903 182.458C168.173 184.613 168.809 187.693 168.809 191.697C168.809 195.701 168.578 201.225 168.116 208.27L163.265 207.866L162.803 206.018C160.994 207.058 159.146 207.577 157.259 207.577C155.373 207.577 153.814 206.962 152.582 205.73C151.35 204.459 150.734 202.65 150.734 200.301C150.734 197.953 151.889 195.932 154.199 194.238C156.547 192.544 159.242 191.659 162.283 191.582V190.022C162.283 186.981 161.552 185.46 160.089 185.46C159.357 185.46 158.684 185.98 158.068 187.02C157.49 188.02 157.067 189.175 156.797 190.484L151.485 189.965ZM156.624 200.648C156.624 201.88 157.356 202.496 158.818 202.496C159.819 202.496 160.878 202.265 161.995 201.803L162.11 196.952C160.301 197.106 158.934 197.568 158.01 198.338C157.086 199.069 156.624 199.839 156.624 200.648ZM185.131 186.153C183.514 186.153 182.301 188.194 181.493 192.275C181.57 194.969 181.608 197.549 181.608 200.013C181.608 202.476 181.531 205.248 181.377 208.328L174.679 207.751C174.794 202.092 174.852 198.973 174.852 198.396C174.852 191.274 174.505 185.826 173.812 182.053L178.143 182.515C178.413 183.632 178.721 184.613 179.067 185.46C180.954 181.418 182.859 179.397 184.784 179.397C186.363 179.397 187.749 180.09 188.942 181.476L187.441 186.789C186.825 186.365 186.055 186.153 185.131 186.153ZM200.017 165.307C199.439 175.047 199.151 183.824 199.151 191.639C199.151 199.454 199.247 204.94 199.439 208.097L192.625 207.462C192.471 203.458 192.394 197.78 192.394 190.427C192.394 183.035 192.683 174.488 193.261 164.787L200.017 165.307ZM218.919 178.069L224.463 181.303C221.268 191.197 217.995 204.324 214.646 220.686L208.294 220.109C208.91 217.067 209.93 212.871 211.354 207.52C207.658 200.436 205.329 191.505 204.367 180.725L210.835 181.36C211.412 188.444 212.336 194.488 213.606 199.493C215.377 191.254 217.148 184.113 218.919 178.069ZM242.258 168.598C246.763 167.212 250.824 166.519 254.443 166.519C258.1 166.519 261.199 167.501 263.74 169.464C266.281 171.389 267.552 173.776 267.552 176.625C267.552 180.898 265.165 184.286 260.391 186.789C264.857 188.598 267.09 191.62 267.09 195.855C267.09 198.973 265.453 201.764 262.181 204.228C258.909 206.654 255.482 207.866 251.902 207.866C251.44 207.866 248.149 207.597 242.027 207.058C242.566 198.781 242.836 191.813 242.836 186.153C242.836 180.494 242.643 174.642 242.258 168.598ZM259.756 177.434C259.756 176.279 259.178 175.316 258.023 174.546C256.907 173.738 255.694 173.333 254.385 173.333C253.115 173.333 251.748 173.564 250.285 174.026C250.439 178.646 250.516 182.13 250.516 184.479C252.287 184.325 254.27 183.535 256.464 182.111C258.659 180.648 259.756 179.089 259.756 177.434ZM253.173 200.821C254.443 200.821 255.79 200.321 257.215 199.32C258.639 198.28 259.351 197.106 259.351 195.797C259.351 194.45 258.524 193.275 256.868 192.275C255.213 191.274 253.076 190.658 250.458 190.427C250.381 194.969 250.304 198.376 250.227 200.648C250.92 200.763 251.902 200.821 253.173 200.821ZM272.254 179.455L278.838 180.09V207.808L272.254 207.173V179.455ZM272.716 169.291L279.184 170.042L278.607 176.51L272.139 175.701L272.716 169.291ZM295.719 186.153C294.102 186.153 292.889 188.194 292.081 192.275C292.158 194.969 292.196 197.549 292.196 200.013C292.196 202.476 292.119 205.248 291.965 208.328L285.266 207.751C285.382 202.092 285.44 198.973 285.44 198.396C285.44 191.274 285.093 185.826 284.4 182.053L288.731 182.515C289.001 183.632 289.309 184.613 289.655 185.46C291.542 181.418 293.447 179.397 295.372 179.397C296.951 179.397 298.336 180.09 299.53 181.476L298.028 186.789C297.412 186.365 296.643 186.153 295.719 186.153ZM313.723 180.841L313.781 173.68C313.781 171.024 313.723 168.002 313.608 164.614L320.364 165.191C320.441 167.925 320.479 172.891 320.479 180.09C320.479 187.251 320.171 196.49 319.555 207.808L314.416 207.346C314.3 205.807 314.185 203.997 314.069 201.918C312.414 205.229 310.624 206.885 308.699 206.885C305.735 206.885 303.675 205.961 302.52 204.113C301.365 202.265 300.788 199.589 300.788 196.086C300.788 192.544 301.538 188.887 303.04 185.114C304.58 181.341 306.312 179.455 308.237 179.455C309.969 179.455 311.798 179.917 313.723 180.841ZM313.896 186.211C312.934 185.48 311.971 185.114 311.009 185.114C310.085 185.114 309.276 186.365 308.584 188.867C307.891 191.331 307.544 193.911 307.544 196.606C307.544 199.3 308.199 200.648 309.507 200.648C310.008 200.648 310.682 199.82 311.529 198.165C312.376 196.471 313.146 194.334 313.838 191.755L313.896 186.211Z" fill="white"/>
</g>
<defs>
<radialGradient id="paint0_radial_25_5" cx="0" cy="0" r="1" gradientUnits="userSpaceOnUse" gradientTransform="translate(400 400) scale(527.16)">
<stop stop-color="white"/>
<stop offset="0.5146" stop-color="#F2F1E1"/>
<stop offset="1" stop-color="#E4E2C1"/>
</radialGradient>
<radialGradient id="paint1_radial_25_5" cx="0" cy="0" r="1" gradientUnits="userSpaceOnUse" gradientTransform="translate(502.085 708.153) scale(121.948 24.8408)">
<stop stop-color="#688D77" stop-opacity="0.8"/>
<stop offset="0.1234" stop-color="#759883" stop-opacity="0.7013"/>
<stop offset="0.4952" stop-color="#98B4A1" stop-opacity="0.4039"/>
<stop offset="0.8007" stop-color="#ADC5B4" stop-opacity="0.1594"/>
<stop offset="1" stop-color="#B5CBBB" stop-opacity="0"/>
</radialGradient>
<linearGradient id="paint2_linear_25_5" x1="711.014" y1="789.688" x2="349.532" y2="245.216" gradientUnits="userSpaceOnUse">
<stop stop-color="#33B8B8"/>
<stop offset="0.299" stop-color="#62C8B6"/>
<stop offset="0.849" stop-color="#E8AF42"/>
</linearGradient>
<linearGradient id="paint3_linear_25_5" x1="405.635" y1="513.066" x2="831.614" y2="412.571" gradientUnits="userSpaceOnUse">
<stop stop-color="#00A6A6"/>
<stop offset="0.284" stop-color="#12ACAC"/>
<stop offset="0.539" stop-color="#E1B137"/>
<stop offset="1" stop-color="#F37602"/>
</linearGradient>
<linearGradient id="paint4_linear_25_5" x1="316.488" y1="426.818" x2="532.478" y2="719.303" gradientUnits="userSpaceOnUse">
<stop stop-color="#91EEEE"/>
<stop offset="0.644" stop-color="#E4B978"/>
<stop offset="1" stop-color="#D07913"/>
</linearGradient>
<linearGradient id="paint5_linear_25_5" x1="221.729" y1="65.2218" x2="222.521" y2="311.675" gradientUnits="userSpaceOnUse">
<stop offset="0.0939996" stop-color="#02EFEF"/>
<stop offset="0.364" stop-color="#2CD7C7"/>
<stop offset="0.584" stop-color="#919C69"/>
<stop offset="1" stop-color="#E88A33"/>
</linearGradient>
<clipPath id="clip0_25_5">
<rect width="800" height="800" fill="white"/>
</clipPath>
</defs>
</svg>
