<svg width="800" height="800" viewBox="0 0 800 800" fill="none" xmlns="http://www.w3.org/2000/svg">
<g clip-path="url(#clip0_25_5)">
<path d="M800 0H0V800H800V0Z" fill="url(#paint0_radial_25_5)"/>
<path d="M502.085 734.955C568.356 734.955 622.079 722.959 622.079 708.16C622.079 693.362 568.356 681.365 502.085 681.365C435.814 681.365 382.091 693.362 382.091 708.16C382.091 722.959 435.814 734.955 502.085 734.955Z" fill="url(#paint1_radial_25_5)"/>
<path d="M317.5 350.334C317.5 350.334 317.5 360.834 330 373.334C342.5 385.834 359 396.667 359 396.667L308 400.334C308 400.334 333.167 412.667 351.667 413.667C370.167 414.667 385 399.334 385 399.334L317.5 350.334Z" fill="#00A6A6"/>
<path d="M382 344.334C398.651 331.383 409.854 330.198 425 322.334C444.5 312.209 439.5 302.709 447 294.334C454.496 285.964 459.5 295.084 458.875 302.709C458.397 308.542 455 316.334 455 316.334C455 316.334 473.5 304.334 479 308.834C484.5 313.334 473 328.834 473 328.834C473 328.834 489.5 324.834 498.5 332.334C507.5 339.834 503 347.834 498 347.834C493 347.834 481.5 345.834 481.5 345.834C481.5 345.834 502.65 356.312 514 382.834C530.333 421.001 519.5 476.834 542 515.834C564.5 554.834 593 572.334 625.5 571.834C658 571.334 661 563.334 670.5 544.834C680 526.334 691 499.834 700 501.334C709 502.834 699.5 528.834 695.5 537.334C691.5 545.834 684.5 555.334 684.5 555.334C684.5 555.334 718.5 511.334 729.5 514.834C740.5 518.334 731.5 534.334 721.5 547.334C711.5 560.334 698.5 571.334 698.5 571.334C698.5 571.334 738.5 547.334 747.5 553.334C756.5 559.334 748.667 573.001 736.667 582.001C724.667 591.001 704 597.001 685.5 597.834C669.392 598.56 658.5 594.334 649 596.834C639.5 599.334 596.5 651.834 522.5 650.334C448.5 648.834 395.383 617.274 362 569.834C330.112 524.518 342.596 423.854 345.5 409.334C349 391.834 359.5 361.834 382 344.334Z" fill="url(#paint2_linear_25_5)"/>
<path d="M448.333 486.001C444.314 475.873 441.666 455.334 457.666 442.668C473.666 430.001 526.999 443.335 571.666 426.668C602.683 415.094 628.999 382.668 648.333 380.668C667.666 378.668 667 396.668 661 408.001C655 419.334 647.667 424.668 647.667 424.668C647.667 424.668 669.817 405.039 681.667 412.001C695 419.834 668.334 448.668 668.334 448.668C668.334 448.668 683.334 438.335 692.334 446.668C704.834 458.242 667.667 508.001 633.667 527.335C599.667 546.668 560 556.335 511.5 540.835C470.557 527.749 456.667 507.001 448.333 486.001Z" fill="url(#paint3_linear_25_5)"/>
<path d="M412.333 430.667C429.638 430.667 443.666 416.639 443.666 399.334C443.666 382.029 429.638 368.001 412.333 368.001C395.028 368.001 381 382.029 381 399.334C381 416.639 395.028 430.667 412.333 430.667Z" fill="white"/>
<path d="M405 408.667C412.732 408.667 419 402.399 419 394.667C419 386.935 412.732 380.667 405 380.667C397.268 380.667 391 386.935 391 394.667C391 402.399 397.268 408.667 405 408.667Z" fill="#00A6A6"/>
<path d="M412 409.667C414.945 409.667 417.333 407.28 417.333 404.334C417.333 401.389 414.945 399.001 412 399.001C409.055 399.001 406.667 401.389 406.667 404.334C406.667 407.28 409.055 409.667 412 409.667Z" fill="white"/>
<path d="M499 632.667C496.333 614 477 556 427.667 496.667C392.312 454.145 357.986 443.81 341.372 441.367C338.213 478.4 340.01 536.32 362 569.834C390.46 613.209 437.625 641.883 499.77 648.835C499.923 643.565 499.759 637.982 499 632.667Z" fill="url(#paint4_linear_25_5)"/>
<path d="M268.521 350.175C268.521 350.175 257.237 336.373 253.854 319.508C250.813 304.347 252.783 295.676 252.783 295.676C252.783 295.676 373.188 294.508 396.521 212.175C417.042 139.764 350.521 95.5076 223.521 92.1746C103.444 89.0226 49.1879 128.842 45.1879 187.508C41.1879 246.174 101.854 284.175 150.521 293.508C199.188 302.841 221.805 299.118 221.805 299.118C221.805 299.118 225.045 320.782 242.521 334.841C261.429 350.052 268.521 350.175 268.521 350.175Z" fill="url(#paint5_linear_25_5)"/>
<path d="M97.0142 208.963C93.3569 208.963 90.2578 207.327 87.717 204.055C85.2146 200.744 83.9634 195.739 83.9634 189.041C83.9634 182.304 85.3301 176.818 88.0634 172.583C90.8353 168.348 94.0884 166.231 97.8227 166.231C101.557 166.231 104.656 167.886 107.12 171.197C109.622 174.508 110.874 179.493 110.874 186.153C110.874 192.813 109.488 198.28 106.716 202.553C103.944 206.827 100.71 208.963 97.0142 208.963ZM97.8804 173.103C96.1865 173.103 94.7236 174.604 93.4917 177.607C92.2597 180.571 91.6437 184.325 91.6437 188.867C91.6437 193.372 92.1635 196.721 93.2029 198.915C94.2809 201.071 95.609 202.149 97.1875 202.149C98.7659 202.149 100.152 200.648 101.345 197.645C102.577 194.642 103.193 190.889 103.193 186.384C103.193 181.842 102.673 178.492 101.634 176.336C100.633 174.18 99.3818 173.103 97.8804 173.103ZM126.955 179.512C132.037 179.512 134.578 183.747 134.578 192.217C134.578 196.683 134.328 201.418 133.827 206.423L127.071 205.787C127.494 201.399 127.706 196.971 127.706 192.506C127.706 188.001 127.071 185.749 125.8 185.749C125.184 185.749 124.395 187.308 123.433 190.427C122.47 193.506 121.873 196.529 121.642 199.493C121.719 201.071 121.873 203.92 122.104 208.039L115.348 207.404C114.925 201.976 114.713 197.202 114.713 193.083C114.713 188.964 114.828 185.268 115.059 181.996L119.333 182.458C119.41 182.766 119.698 184.017 120.199 186.211C122.432 181.745 124.684 179.512 126.955 179.512ZM154.906 207.231C154.752 201.148 154.675 195.393 154.675 189.965C154.675 184.536 154.983 177.472 155.599 168.771C162.182 167.771 168.611 167.27 174.886 167.27V174.373C170.536 174.373 166.493 174.508 162.759 174.777C162.605 179.089 162.509 182.4 162.47 184.71C165.396 184.286 168.861 184.036 172.865 183.959L173.962 190.311C171.383 190.35 167.514 190.638 162.355 191.177C162.355 195.797 162.374 199.127 162.413 201.168C165.762 200.898 169.766 200.321 174.424 199.435L175.406 205.787C172.133 207.289 168.264 208.039 163.799 208.039L154.906 207.231ZM190.147 207.924L182.755 207.231C179.906 195.759 178.174 186.769 177.558 180.263L184.141 180.841C184.795 187.924 185.7 194.276 186.855 199.897C188.433 194.122 190.108 186.866 191.879 178.126L198.116 178.646C195.921 188.771 193.265 198.53 190.147 207.924ZM208.176 202.842C209.639 202.842 211.198 201.437 212.853 198.627L217.242 201.225C216.511 202.496 215.798 203.574 215.105 204.459C214.451 205.345 213.45 206.192 212.103 207C210.755 207.808 209.254 208.213 207.598 208.213C205.173 208.213 203.133 207.192 201.477 205.152C199.822 203.073 198.994 200.282 198.994 196.779C198.994 192.775 199.706 189.041 201.131 185.576C201.901 183.766 202.998 182.304 204.422 181.187C205.885 180.032 207.367 179.455 208.869 179.455C210.409 179.455 211.641 179.705 212.565 180.205C213.489 180.667 214.22 181.206 214.759 181.822C215.336 182.4 215.837 183.266 216.26 184.421C216.684 185.576 216.973 186.519 217.127 187.251C217.319 187.982 217.473 189.041 217.589 190.427C217.743 192.275 217.82 193.949 217.82 195.451C214.74 196.298 210.755 197.068 205.866 197.76C205.981 199.3 206.251 200.532 206.674 201.456C207.098 202.38 207.598 202.842 208.176 202.842ZM209.446 185.114C208.599 185.114 207.829 185.961 207.136 187.655C206.482 189.349 206.097 191.312 205.981 193.545C208.022 193.121 209.793 192.717 211.294 192.332C211.294 187.52 210.678 185.114 209.446 185.114ZM233.595 179.512C238.677 179.512 241.218 183.747 241.218 192.217C241.218 196.683 240.968 201.418 240.467 206.423L233.711 205.787C234.134 201.399 234.346 196.971 234.346 192.506C234.346 188.001 233.711 185.749 232.44 185.749C231.824 185.749 231.035 187.308 230.073 190.427C229.11 193.506 228.514 196.529 228.283 199.493C228.36 201.071 228.514 203.92 228.745 208.039L221.988 207.404C221.565 201.976 221.353 197.202 221.353 193.083C221.353 188.964 221.468 185.268 221.699 181.996L225.973 182.458C226.05 182.766 226.338 184.017 226.839 186.211C229.072 181.745 231.324 179.512 233.595 179.512ZM259.687 182.862V188.348C257.839 188.348 256.415 188.367 255.414 188.405C255.298 192.255 255.241 198.723 255.241 207.808L248.426 207.173C248.426 200.436 248.484 194.334 248.6 188.867C248.022 188.867 246.925 188.964 245.308 189.156L244.442 184.421C245.366 184.228 246.809 183.978 248.773 183.67C248.85 180.821 249.004 176.664 249.235 171.197L256.107 171.832C255.876 175.643 255.703 179.339 255.587 182.919C256.549 182.881 257.916 182.862 259.687 182.862ZM287.538 166.519C292.043 166.519 295.507 168.29 297.933 171.832C300.397 175.374 301.629 179.666 301.629 184.71C301.629 188.598 301.013 192.275 299.781 195.739C298.549 199.166 296.624 202.053 294.006 204.401C291.388 206.711 288.327 207.866 284.824 207.866C284.131 207.866 281.513 207.597 276.971 207.058C277.51 198.781 277.779 191.928 277.779 186.5C277.779 181.072 277.606 175.066 277.259 168.483C280.994 167.174 284.42 166.519 287.538 166.519ZM286.268 200.821C288.039 200.821 289.79 199.262 291.523 196.144C293.294 192.987 294.179 189.599 294.179 185.98C294.179 182.323 293.544 179.32 292.274 176.972C291.042 174.623 289.559 173.449 287.827 173.449C286.903 173.449 286.037 173.603 285.228 173.911C285.382 179.609 285.459 184.402 285.459 188.29C285.459 192.14 285.344 196.163 285.113 200.359C285.382 200.667 285.767 200.821 286.268 200.821ZM305.437 189.965C306.015 186.962 307.112 184.421 308.729 182.342C310.346 180.225 312.463 179.166 315.081 179.166C317.699 179.166 319.624 180.263 320.856 182.458C322.126 184.613 322.761 187.693 322.761 191.697C322.761 195.701 322.53 201.225 322.068 208.27L317.218 207.866L316.756 206.018C314.946 207.058 313.098 207.577 311.212 207.577C309.325 207.577 307.766 206.962 306.534 205.73C305.302 204.459 304.686 202.65 304.686 200.301C304.686 197.953 305.841 195.932 308.151 194.238C310.5 192.544 313.194 191.659 316.236 191.582V190.022C316.236 186.981 315.504 185.46 314.041 185.46C313.31 185.46 312.636 185.98 312.02 187.02C311.443 188.02 311.019 189.175 310.75 190.484L305.437 189.965ZM310.577 200.648C310.577 201.88 311.308 202.496 312.771 202.496C313.772 202.496 314.831 202.265 315.947 201.803L316.063 196.952C314.253 197.106 312.887 197.568 311.963 198.338C311.039 199.069 310.577 199.839 310.577 200.648ZM341.74 182.862V188.348C339.892 188.348 338.467 188.367 337.466 188.405C337.351 192.255 337.293 198.723 337.293 207.808L330.479 207.173C330.479 200.436 330.537 194.334 330.652 188.867C330.075 188.867 328.978 188.964 327.361 189.156L326.494 184.421C327.418 184.228 328.862 183.978 330.826 183.67C330.903 180.821 331.056 176.664 331.287 171.197L338.159 171.832C337.928 175.643 337.755 179.339 337.64 182.919C338.602 182.881 339.969 182.862 341.74 182.862ZM352.487 202.842C353.95 202.842 355.509 201.437 357.164 198.627L361.553 201.225C360.822 202.496 360.11 203.574 359.417 204.459C358.762 205.345 357.761 206.192 356.414 207C355.066 207.808 353.565 208.213 351.909 208.213C349.484 208.213 347.444 207.192 345.788 205.152C344.133 203.073 343.305 200.282 343.305 196.779C343.305 192.775 344.017 189.041 345.442 185.576C346.212 183.766 347.309 182.304 348.733 181.187C350.196 180.032 351.679 179.455 353.18 179.455C354.72 179.455 355.952 179.705 356.876 180.205C357.8 180.667 358.531 181.206 359.07 181.822C359.648 182.4 360.148 183.266 360.572 184.421C360.995 185.576 361.284 186.519 361.438 187.251C361.63 187.982 361.784 189.041 361.9 190.427C362.054 192.275 362.131 193.949 362.131 195.451C359.051 196.298 355.066 197.068 350.177 197.76C350.293 199.3 350.562 200.532 350.986 201.456C351.409 202.38 351.909 202.842 352.487 202.842ZM353.757 185.114C352.91 185.114 352.14 185.961 351.448 187.655C350.793 189.349 350.408 191.312 350.293 193.545C352.333 193.121 354.104 192.717 355.605 192.332C355.605 187.52 354.989 185.114 353.757 185.114Z" fill="white"/>
</g>
<defs>
<radialGradient id="paint0_radial_25_5" cx="0" cy="0" r="1" gradientUnits="userSpaceOnUse" gradientTransform="translate(400 400) scale(527.16)">
<stop stop-color="white"/>
<stop offset="0.5146" stop-color="#F2F1E1"/>
<stop offset="1" stop-color="#E4E2C1"/>
</radialGradient>
<radialGradient id="paint1_radial_25_5" cx="0" cy="0" r="1" gradientUnits="userSpaceOnUse" gradientTransform="translate(502.085 708.153) scale(121.948 24.8408)">
<stop stop-color="#688D77" stop-opacity="0.8"/>
<stop offset="0.1234" stop-color="#759883" stop-opacity="0.7013"/>
<stop offset="0.4952" stop-color="#98B4A1" stop-opacity="0.4039"/>
<stop offset="0.8007" stop-color="#ADC5B4" stop-opacity="0.1594"/>
<stop offset="1" stop-color="#B5CBBB" stop-opacity="0"/>
</radialGradient>
<linearGradient id="paint2_linear_25_5" x1="711.014" y1="789.688" x2="349.532" y2="245.216" gradientUnits="userSpaceOnUse">
<stop stop-color="#33B8B8"/>
<stop offset="0.299" stop-color="#62C8B6"/>
<stop offset="0.849" stop-color="#E8AF42"/>
</linearGradient>
<linearGradient id="paint3_linear_25_5" x1="405.635" y1="513.066" x2="831.614" y2="412.571" gradientUnits="userSpaceOnUse">
<stop stop-color="#00A6A6"/>
<stop offset="0.284" stop-color="#12ACAC"/>
<stop offset="0.539" stop-color="#E1B137"/>
<stop offset="1" stop-color="#F37602"/>
</linearGradient>
<linearGradient id="paint4_linear_25_5" x1="316.488" y1="426.818" x2="532.478" y2="719.303" gradientUnits="userSpaceOnUse">
<stop stop-color="#91EEEE"/>
<stop offset="0.644" stop-color="#E4B978"/>
<stop offset="1" stop-color="#D07913"/>
</linearGradient>
<linearGradient id="paint5_linear_25_5" x1="221.729" y1="65.2218" x2="222.521" y2="311.675" gradientUnits="userSpaceOnUse">
<stop offset="0.0939996" stop-color="#02EFEF"/>
<stop offset="0.364" stop-color="#2CD7C7"/>
<stop offset="0.584" stop-color="#919C69"/>
<stop offset="1" stop-color="#E88A33"/>
</linearGradient>
<clipPath id="clip0_25_5">
<rect width="800" height="800" fill="white"/>
</clipPath>
</defs>
</svg>
