<svg width="800" height="800" viewBox="0 0 800 800" fill="none" xmlns="http://www.w3.org/2000/svg">
<g clip-path="url(#clip0_25_5)">
<path d="M800 0H0V800H800V0Z" fill="url(#paint0_radial_25_5)"/>
<path d="M318.312 736.955C252.041 736.955 198.318 724.959 198.318 710.16C198.318 695.362 252.041 683.365 318.312 683.365C384.583 683.365 438.306 695.362 438.306 710.16C438.306 724.959 384.583 736.955 318.312 736.955Z" fill="url(#paint1_radial_25_5)"/>
<path d="M502.897 352.334C502.897 352.334 502.897 362.834 490.397 375.334C477.897 387.834 461.397 398.667 461.397 398.667L512.397 402.334C512.397 402.334 487.23 414.667 468.73 415.667C450.23 416.667 435.397 401.334 435.397 401.334L502.897 352.334Z" fill="#00A6A6"/>
<path d="M438.397 346.334C421.746 333.383 410.543 332.198 395.397 324.334C375.897 314.209 380.897 304.709 373.397 296.334C365.901 287.964 360.897 297.084 361.522 304.709C362 310.542 365.397 318.334 365.397 318.334C365.397 318.334 346.897 306.334 341.397 310.834C335.897 315.334 347.397 330.834 347.397 330.834C347.397 330.834 330.897 326.834 321.897 334.334C312.897 341.834 317.397 349.834 322.397 349.834C327.397 349.834 338.897 347.834 338.897 347.834C338.897 347.834 317.747 358.312 306.397 384.834C290.064 423.001 300.897 478.834 278.397 517.834C255.897 556.834 227.397 574.334 194.897 573.834C162.397 573.334 159.397 565.334 149.897 546.834C140.397 528.334 129.397 501.834 120.397 503.334C111.397 504.834 120.897 530.834 124.897 539.334C128.897 547.834 135.897 557.334 135.897 557.334C135.897 557.334 101.897 513.334 90.8972 516.834C79.8972 520.334 88.8972 536.334 98.8972 549.334C108.897 562.334 121.897 573.334 121.897 573.334C121.897 573.334 81.8972 549.334 72.8972 555.334C63.8972 561.334 71.7302 575.001 83.7302 584.001C95.7302 593.001 116.397 599.001 134.897 599.834C151.005 600.56 161.897 596.334 171.397 598.834C180.897 601.334 223.897 653.834 297.897 652.334C371.897 650.834 425.014 619.274 458.397 571.834C490.285 526.518 477.801 425.854 474.897 411.334C471.397 393.834 460.897 363.834 438.397 346.334Z" fill="url(#paint2_linear_25_5)"/>
<path d="M372.064 488.001C376.083 477.873 378.731 457.334 362.731 444.668C346.731 432.001 293.398 445.335 248.731 428.668C217.714 417.094 191.398 384.668 172.064 382.668C152.731 380.668 153.397 398.668 159.397 410.001C165.397 421.334 172.73 426.668 172.73 426.668C172.73 426.668 150.58 407.039 138.73 414.001C125.397 421.834 152.063 450.668 152.063 450.668C152.063 450.668 137.063 440.335 128.063 448.668C115.563 460.242 152.73 510.001 186.73 529.335C220.73 548.668 260.397 558.335 308.897 542.835C349.84 529.749 363.73 509.001 372.064 488.001Z" fill="url(#paint3_linear_25_5)"/>
<path d="M408.064 432.667C390.759 432.667 376.731 418.639 376.731 401.334C376.731 384.029 390.759 370.001 408.064 370.001C425.369 370.001 439.397 384.029 439.397 401.334C439.397 418.639 425.369 432.667 408.064 432.667Z" fill="white"/>
<path d="M415.397 410.667C407.665 410.667 401.397 404.399 401.397 396.667C401.397 388.935 407.665 382.667 415.397 382.667C423.129 382.667 429.397 388.935 429.397 396.667C429.397 404.399 423.129 410.667 415.397 410.667Z" fill="#00A6A6"/>
<path d="M408.397 411.667C405.452 411.667 403.064 409.28 403.064 406.334C403.064 403.389 405.452 401.001 408.397 401.001C411.342 401.001 413.73 403.389 413.73 406.334C413.73 409.28 411.342 411.667 408.397 411.667Z" fill="white"/>
<path d="M321.397 634.667C324.064 616 343.397 558 392.73 498.667C428.085 456.145 462.411 445.81 479.025 443.367C482.184 480.4 480.387 538.32 458.397 571.834C429.937 615.209 382.772 643.883 320.627 650.835C320.474 645.565 320.638 639.982 321.397 634.667Z" fill="url(#paint4_linear_25_5)"/>
<path d="M545.673 352.175C545.673 352.175 556.957 338.373 560.34 321.508C563.381 306.347 561.411 297.676 561.411 297.676C561.411 297.676 441.006 296.508 417.673 214.175C397.152 141.764 463.673 97.5076 590.673 94.1746C710.75 91.0226 765.006 130.842 769.006 189.508C773.006 248.174 712.34 286.175 663.673 295.508C615.006 304.841 592.389 301.118 592.389 301.118C592.389 301.118 589.149 322.782 571.673 336.841C552.765 352.052 545.673 352.175 545.673 352.175Z" fill="url(#paint5_linear_25_5)"/>
<path d="M519.44 183.765C519.94 181.878 520.19 180.3 520.19 179.029C520.19 177.759 519.844 176.719 519.151 175.911C518.458 175.064 517.553 174.641 516.437 174.641C515.359 174.641 514.454 175.18 513.723 176.257C512.991 177.335 512.625 178.567 512.625 179.953C512.625 182.648 514.165 184.958 517.245 186.883C520.325 188.885 522.423 190.328 523.54 191.214C524.656 192.099 525.445 192.908 525.907 193.639C527.062 195.526 527.64 197.47 527.64 199.472C527.64 202.937 526.465 205.708 524.117 207.787C521.807 209.828 519.189 210.848 516.264 210.848C512.799 210.848 509.892 209.385 507.544 206.459C505.85 204.342 504.291 201.705 502.866 198.548L508.468 195.834C509.353 198.144 510.45 200.107 511.759 201.724C513.107 203.302 514.531 204.092 516.033 204.092C516.995 204.092 517.861 203.784 518.631 203.168C519.401 202.552 519.786 201.628 519.786 200.396C519.786 199.125 519.305 197.951 518.342 196.873C517.38 195.795 516.09 194.698 514.473 193.582C512.856 192.465 511.605 191.56 510.72 190.867C509.834 190.136 508.853 189.212 507.775 188.096C505.734 185.94 504.714 183.187 504.714 179.838C504.714 176.45 505.888 173.62 508.237 171.349C510.585 169.039 513.376 167.884 516.61 167.884C519.844 167.884 522.558 169.135 524.752 171.638C526.985 174.14 528.102 176.719 528.102 179.376C528.102 181.994 527.601 184.246 526.6 186.132L519.44 183.765ZM545.865 184.862V190.348C544.017 190.348 542.593 190.367 541.592 190.405C541.476 194.255 541.419 200.723 541.419 209.808L534.604 209.173C534.604 202.436 534.662 196.334 534.778 190.867C534.2 190.867 533.103 190.964 531.486 191.156L530.62 186.421C531.544 186.228 532.988 185.978 534.951 185.67C535.028 182.821 535.182 178.664 535.413 173.197L542.285 173.832C542.054 177.643 541.881 181.339 541.765 184.919C542.728 184.881 544.094 184.862 545.865 184.862ZM548.643 191.965C549.221 188.962 550.318 186.421 551.935 184.342C553.552 182.225 555.669 181.166 558.287 181.166C560.905 181.166 562.83 182.263 564.062 184.458C565.332 186.613 565.967 189.693 565.967 193.697C565.967 197.701 565.736 203.225 565.274 210.27L560.424 209.866L559.962 208.018C558.152 209.058 556.304 209.577 554.418 209.577C552.532 209.577 550.972 208.962 549.741 207.73C548.509 206.459 547.893 204.65 547.893 202.301C547.893 199.953 549.048 197.932 551.357 196.238C553.706 194.544 556.401 193.659 559.442 193.582V192.022C559.442 188.981 558.711 187.46 557.248 187.46C556.516 187.46 555.842 187.98 555.226 189.02C554.649 190.02 554.226 191.175 553.956 192.484L548.643 191.965ZM553.783 202.648C553.783 203.88 554.514 204.496 555.977 204.496C556.978 204.496 558.037 204.265 559.153 203.803L559.269 198.952C557.459 199.106 556.093 199.568 555.169 200.338C554.245 201.069 553.783 201.839 553.783 202.648ZM583.329 181.512C588.411 181.512 590.952 185.747 590.952 194.217C590.952 198.683 590.701 203.418 590.201 208.423L583.444 207.787C583.868 203.399 584.08 198.971 584.08 194.506C584.08 190.001 583.444 187.749 582.174 187.749C581.558 187.749 580.769 189.308 579.806 192.427C578.844 195.506 578.247 198.529 578.016 201.493C578.093 203.071 578.247 205.92 578.478 210.039L571.722 209.404C571.298 203.976 571.087 199.202 571.087 195.083C571.087 190.964 571.202 187.268 571.433 183.996L575.706 184.458C575.783 184.766 576.072 186.017 576.573 188.211C578.805 183.745 581.058 181.512 583.329 181.512ZM607.4 182.841L607.457 175.68C607.457 173.024 607.4 170.002 607.284 166.614L614.04 167.191C614.117 169.925 614.156 174.891 614.156 182.09C614.156 189.251 613.848 198.49 613.232 209.808L608.093 209.346C607.977 207.807 607.862 205.997 607.746 203.918C606.091 207.229 604.3 208.885 602.376 208.885C599.411 208.885 597.352 207.961 596.197 206.113C595.042 204.265 594.464 201.589 594.464 198.086C594.464 194.544 595.215 190.887 596.716 187.114C598.256 183.341 599.989 181.455 601.914 181.455C603.646 181.455 605.475 181.917 607.4 182.841ZM607.573 188.211C606.61 187.48 605.648 187.114 604.685 187.114C603.761 187.114 602.953 188.365 602.26 190.867C601.567 193.331 601.221 195.911 601.221 198.606C601.221 201.3 601.875 202.648 603.184 202.648C603.685 202.648 604.358 201.82 605.205 200.165C606.052 198.471 606.822 196.334 607.515 193.755L607.573 188.211ZM619.304 191.965C619.882 188.962 620.979 186.421 622.596 184.342C624.213 182.225 626.33 181.166 628.948 181.166C631.566 181.166 633.491 182.263 634.723 184.458C635.993 186.613 636.629 189.693 636.629 193.697C636.629 197.701 636.398 203.225 635.936 210.27L631.085 209.866L630.623 208.018C628.813 209.058 626.966 209.577 625.079 209.577C623.193 209.577 621.634 208.962 620.402 207.73C619.17 206.459 618.554 204.65 618.554 202.301C618.554 199.953 619.709 197.932 622.019 196.238C624.367 194.544 627.062 193.659 630.103 193.582V192.022C630.103 188.981 629.372 187.46 627.909 187.46C627.177 187.46 626.504 187.98 625.888 189.02C625.31 190.02 624.887 191.175 624.617 192.484L619.304 191.965ZM624.444 202.648C624.444 203.88 625.175 204.496 626.638 204.496C627.639 204.496 628.698 204.265 629.814 203.803L629.93 198.952C628.121 199.106 626.754 199.568 625.83 200.338C624.906 201.069 624.444 201.839 624.444 202.648ZM652.951 188.153C651.334 188.153 650.121 190.194 649.313 194.275C649.39 196.969 649.428 199.549 649.428 202.013C649.428 204.476 649.351 207.248 649.197 210.328L642.498 209.751C642.614 204.092 642.672 200.973 642.672 200.396C642.672 193.274 642.325 187.826 641.632 184.053L645.963 184.515C646.233 185.632 646.541 186.613 646.887 187.46C648.774 183.418 650.679 181.397 652.604 181.397C654.183 181.397 655.569 182.09 656.762 183.476L655.261 188.789C654.645 188.365 653.875 188.153 652.951 188.153ZM670.955 182.841L671.013 175.68C671.013 173.024 670.955 170.002 670.84 166.614L677.596 167.191C677.673 169.925 677.711 174.891 677.711 182.09C677.711 189.251 677.404 198.49 676.788 209.808L671.648 209.346C671.533 207.807 671.417 205.997 671.302 203.918C669.646 207.229 667.856 208.885 665.931 208.885C662.967 208.885 660.907 207.961 659.752 206.113C658.597 204.265 658.02 201.589 658.02 198.086C658.02 194.544 658.77 190.887 660.272 187.114C661.812 183.341 663.544 181.455 665.469 181.455C667.202 181.455 669.03 181.917 670.955 182.841ZM671.128 188.211C670.166 187.48 669.203 187.114 668.241 187.114C667.317 187.114 666.509 188.365 665.816 190.867C665.123 193.331 664.776 195.911 664.776 198.606C664.776 201.3 665.431 202.648 666.74 202.648C667.24 202.648 667.914 201.82 668.761 200.165C669.608 198.471 670.378 196.334 671.071 193.755L671.128 188.211Z" fill="white"/>
</g>
<defs>
<radialGradient id="paint0_radial_25_5" cx="0" cy="0" r="1" gradientUnits="userSpaceOnUse" gradientTransform="translate(400 400) scale(527.16)">
<stop stop-color="white"/>
<stop offset="0.5146" stop-color="#F2F1E1"/>
<stop offset="1" stop-color="#E4E2C1"/>
</radialGradient>
<radialGradient id="paint1_radial_25_5" cx="0" cy="0" r="1" gradientUnits="userSpaceOnUse" gradientTransform="translate(318.312 710.153) rotate(180) scale(121.948 24.8408)">
<stop stop-color="#688D77" stop-opacity="0.8"/>
<stop offset="0.1234" stop-color="#759883" stop-opacity="0.7013"/>
<stop offset="0.4952" stop-color="#98B4A1" stop-opacity="0.4039"/>
<stop offset="0.8007" stop-color="#ADC5B4" stop-opacity="0.1594"/>
<stop offset="1" stop-color="#B5CBBB" stop-opacity="0"/>
</radialGradient>
<linearGradient id="paint2_linear_25_5" x1="109.383" y1="791.688" x2="470.865" y2="247.216" gradientUnits="userSpaceOnUse">
<stop stop-color="#33B8B8"/>
<stop offset="0.299" stop-color="#62C8B6"/>
<stop offset="0.849" stop-color="#E8AF42"/>
</linearGradient>
<linearGradient id="paint3_linear_25_5" x1="414.762" y1="515.066" x2="-11.2168" y2="414.571" gradientUnits="userSpaceOnUse">
<stop stop-color="#00A6A6"/>
<stop offset="0.284" stop-color="#12ACAC"/>
<stop offset="0.539" stop-color="#E1B137"/>
<stop offset="1" stop-color="#F37602"/>
</linearGradient>
<linearGradient id="paint4_linear_25_5" x1="503.909" y1="428.818" x2="287.92" y2="721.303" gradientUnits="userSpaceOnUse">
<stop stop-color="#91EEEE"/>
<stop offset="0.644" stop-color="#E4B978"/>
<stop offset="1" stop-color="#D07913"/>
</linearGradient>
<linearGradient id="paint5_linear_25_5" x1="592.465" y1="67.2218" x2="591.673" y2="313.675" gradientUnits="userSpaceOnUse">
<stop offset="0.0939996" stop-color="#02EFEF"/>
<stop offset="0.364" stop-color="#2CD7C7"/>
<stop offset="0.584" stop-color="#919C69"/>
<stop offset="1" stop-color="#E88A33"/>
</linearGradient>
<clipPath id="clip0_25_5">
<rect width="800" height="800" fill="white"/>
</clipPath>
</defs>
</svg>
