<svg width="800" height="800" viewBox="0 0 800 800" fill="none" xmlns="http://www.w3.org/2000/svg">
<g clip-path="url(#clip0_25_5)">
<path d="M800 0H0V800H800V0Z" fill="url(#paint0_radial_25_5)"/>
<path d="M318.312 736.955C252.041 736.955 198.318 724.959 198.318 710.16C198.318 695.362 252.041 683.365 318.312 683.365C384.583 683.365 438.306 695.362 438.306 710.16C438.306 724.959 384.583 736.955 318.312 736.955Z" fill="url(#paint1_radial_25_5)"/>
<path d="M502.897 352.334C502.897 352.334 502.897 362.834 490.397 375.334C477.897 387.834 461.397 398.667 461.397 398.667L512.397 402.334C512.397 402.334 487.23 414.667 468.73 415.667C450.23 416.667 435.397 401.334 435.397 401.334L502.897 352.334Z" fill="#00A6A6"/>
<path d="M438.397 346.334C421.746 333.383 410.543 332.198 395.397 324.334C375.897 314.209 380.897 304.709 373.397 296.334C365.901 287.964 360.897 297.084 361.522 304.709C362 310.542 365.397 318.334 365.397 318.334C365.397 318.334 346.897 306.334 341.397 310.834C335.897 315.334 347.397 330.834 347.397 330.834C347.397 330.834 330.897 326.834 321.897 334.334C312.897 341.834 317.397 349.834 322.397 349.834C327.397 349.834 338.897 347.834 338.897 347.834C338.897 347.834 317.747 358.312 306.397 384.834C290.064 423.001 300.897 478.834 278.397 517.834C255.897 556.834 227.397 574.334 194.897 573.834C162.397 573.334 159.397 565.334 149.897 546.834C140.397 528.334 129.397 501.834 120.397 503.334C111.397 504.834 120.897 530.834 124.897 539.334C128.897 547.834 135.897 557.334 135.897 557.334C135.897 557.334 101.897 513.334 90.8972 516.834C79.8972 520.334 88.8972 536.334 98.8972 549.334C108.897 562.334 121.897 573.334 121.897 573.334C121.897 573.334 81.8972 549.334 72.8972 555.334C63.8972 561.334 71.7302 575.001 83.7302 584.001C95.7302 593.001 116.397 599.001 134.897 599.834C151.005 600.56 161.897 596.334 171.397 598.834C180.897 601.334 223.897 653.834 297.897 652.334C371.897 650.834 425.014 619.274 458.397 571.834C490.285 526.518 477.801 425.854 474.897 411.334C471.397 393.834 460.897 363.834 438.397 346.334Z" fill="url(#paint2_linear_25_5)"/>
<path d="M372.064 488.001C376.083 477.873 378.731 457.334 362.731 444.668C346.731 432.001 293.398 445.335 248.731 428.668C217.714 417.094 191.398 384.668 172.064 382.668C152.731 380.668 153.397 398.668 159.397 410.001C165.397 421.334 172.73 426.668 172.73 426.668C172.73 426.668 150.58 407.039 138.73 414.001C125.397 421.834 152.063 450.668 152.063 450.668C152.063 450.668 137.063 440.335 128.063 448.668C115.563 460.242 152.73 510.001 186.73 529.335C220.73 548.668 260.397 558.335 308.897 542.835C349.84 529.749 363.73 509.001 372.064 488.001Z" fill="url(#paint3_linear_25_5)"/>
<path d="M408.064 432.667C390.759 432.667 376.731 418.639 376.731 401.334C376.731 384.029 390.759 370.001 408.064 370.001C425.369 370.001 439.397 384.029 439.397 401.334C439.397 418.639 425.369 432.667 408.064 432.667Z" fill="white"/>
<path d="M415.397 410.667C407.665 410.667 401.397 404.399 401.397 396.667C401.397 388.935 407.665 382.667 415.397 382.667C423.129 382.667 429.397 388.935 429.397 396.667C429.397 404.399 423.129 410.667 415.397 410.667Z" fill="#00A6A6"/>
<path d="M408.397 411.667C405.452 411.667 403.064 409.28 403.064 406.334C403.064 403.389 405.452 401.001 408.397 401.001C411.342 401.001 413.73 403.389 413.73 406.334C413.73 409.28 411.342 411.667 408.397 411.667Z" fill="white"/>
<path d="M321.397 634.667C324.064 616 343.397 558 392.73 498.667C428.085 456.145 462.411 445.81 479.025 443.367C482.184 480.4 480.387 538.32 458.397 571.834C429.937 615.209 382.772 643.883 320.627 650.835C320.474 645.565 320.638 639.982 321.397 634.667Z" fill="url(#paint4_linear_25_5)"/>
<path d="M545.673 352.175C545.673 352.175 556.957 338.373 560.34 321.508C563.381 306.347 561.411 297.676 561.411 297.676C561.411 297.676 441.006 296.508 417.673 214.175C397.152 141.764 463.673 97.5076 590.673 94.1746C710.75 91.0226 765.006 130.842 769.006 189.508C773.006 248.174 712.34 286.175 663.673 295.508C615.006 304.841 592.389 301.118 592.389 301.118C592.389 301.118 589.149 322.782 571.673 336.841C552.765 352.052 545.673 352.175 545.673 352.175Z" fill="url(#paint5_linear_25_5)"/>
<path d="M489.96 166.939C490.461 165.053 490.711 163.474 490.711 162.204C490.711 160.933 490.365 159.894 489.672 159.086C488.979 158.239 488.074 157.815 486.958 157.815C485.88 157.815 484.975 158.354 484.244 159.432C483.512 160.51 483.146 161.742 483.146 163.128C483.146 165.823 484.686 168.133 487.766 170.058C490.846 172.059 492.944 173.503 494.061 174.389C495.177 175.274 495.966 176.082 496.428 176.814C497.583 178.7 498.161 180.644 498.161 182.646C498.161 186.111 496.986 188.883 494.638 190.962C492.328 193.002 489.71 194.023 486.784 194.023C483.32 194.023 480.413 192.56 478.065 189.634C476.371 187.516 474.812 184.879 473.387 181.722L478.989 179.008C479.874 181.318 480.971 183.282 482.28 184.898C483.628 186.477 485.052 187.266 486.553 187.266C487.516 187.266 488.382 186.958 489.152 186.342C489.922 185.726 490.307 184.802 490.307 183.57C490.307 182.3 489.826 181.126 488.863 180.048C487.901 178.97 486.611 177.873 484.994 176.756C483.377 175.64 482.126 174.735 481.241 174.042C480.355 173.311 479.374 172.387 478.296 171.27C476.255 169.114 475.235 166.362 475.235 163.012C475.235 159.625 476.409 156.795 478.758 154.524C481.106 152.214 483.897 151.059 487.131 151.059C490.365 151.059 493.079 152.31 495.273 154.812C497.506 157.315 498.623 159.894 498.623 162.55C498.623 165.168 498.122 167.42 497.121 169.307L489.96 166.939ZM521.757 165.091L521.641 174.215C521.641 182.8 521.795 189.114 522.103 193.156L516.386 192.579C516.271 190.962 516.02 189.326 515.635 187.67C513.518 190.789 511.381 192.348 509.225 192.348C507.108 192.348 505.414 191.616 504.144 190.153C502.873 188.691 502.238 186.669 502.238 184.09C502.238 179.085 502.604 173.118 503.335 166.188L510.034 166.824C509.341 173.407 508.994 178.874 508.994 183.224C508.994 185.187 509.61 186.169 510.842 186.169C511.42 186.169 512.113 185.38 512.921 183.801C513.768 182.223 514.442 180.317 514.942 178.084C514.904 177.237 514.885 176.236 514.885 175.082C514.885 173.927 514.942 170.404 515.058 164.514L521.757 165.091ZM534.11 168.787C535.65 166.439 537.555 165.265 539.827 165.265C542.098 165.265 543.869 166.188 545.14 168.036C546.41 169.884 547.045 172.31 547.045 175.312C547.045 179.778 546.083 183.84 544.158 187.497C542.271 191.154 540.25 192.983 538.094 192.983C536.554 192.983 535.226 192.791 534.11 192.406C534.187 197.718 534.322 202.357 534.514 206.323L527.758 205.63C527.565 198.7 527.469 191.347 527.469 183.57C527.469 175.755 527.738 169.018 528.277 163.359L534.283 163.994L534.11 168.787ZM535.842 187.208C536.92 187.208 537.921 186.15 538.845 184.032C539.808 181.915 540.289 179.798 540.289 177.68C540.289 175.524 540.096 173.869 539.711 172.714C539.326 171.52 538.884 170.924 538.383 170.924C537.536 170.924 536.785 171.424 536.131 172.425C535.515 173.426 534.861 174.87 534.168 176.756C534.129 178.758 534.11 181.838 534.11 185.996C534.687 186.804 535.265 187.208 535.842 187.208ZM558.488 188.017C559.951 188.017 561.51 186.612 563.166 183.801L567.554 186.4C566.823 187.67 566.111 188.748 565.418 189.634C564.763 190.519 563.762 191.366 562.415 192.175C561.067 192.983 559.566 193.387 557.911 193.387C555.485 193.387 553.445 192.367 551.789 190.327C550.134 188.248 549.306 185.457 549.306 181.953C549.306 177.95 550.019 174.215 551.443 170.75C552.213 168.941 553.31 167.478 554.735 166.362C556.197 165.207 557.68 164.629 559.181 164.629C560.721 164.629 561.953 164.88 562.877 165.38C563.801 165.842 564.532 166.381 565.071 166.997C565.649 167.574 566.149 168.441 566.573 169.596C566.996 170.75 567.285 171.694 567.439 172.425C567.631 173.157 567.785 174.215 567.901 175.601C568.055 177.449 568.132 179.124 568.132 180.625C565.052 181.472 561.067 182.242 556.178 182.935C556.294 184.475 556.563 185.707 556.987 186.631C557.41 187.555 557.911 188.017 558.488 188.017ZM559.759 170.289C558.912 170.289 558.142 171.135 557.449 172.829C556.794 174.523 556.409 176.487 556.294 178.72C558.334 178.296 560.105 177.892 561.606 177.507C561.606 172.695 560.99 170.289 559.759 170.289ZM582.868 171.328C581.251 171.328 580.039 173.368 579.23 177.449C579.307 180.144 579.346 182.723 579.346 185.187C579.346 187.651 579.269 190.423 579.115 193.503L572.416 192.925C572.531 187.266 572.589 184.148 572.589 183.57C572.589 176.448 572.243 171.001 571.55 167.228L575.881 167.69C576.15 168.806 576.458 169.788 576.805 170.635C578.691 166.593 580.597 164.572 582.522 164.572C584.1 164.572 585.486 165.265 586.679 166.65L585.178 171.963C584.562 171.54 583.792 171.328 582.868 171.328ZM604.753 192.406C604.599 186.323 604.522 180.567 604.522 175.139C604.522 169.711 604.829 162.647 605.445 153.946C612.029 152.945 618.458 152.445 624.733 152.445V159.548C620.383 159.548 616.34 159.682 612.606 159.952C612.452 164.264 612.356 167.574 612.317 169.884C615.243 169.461 618.708 169.211 622.712 169.134L623.809 175.486C621.23 175.524 617.361 175.813 612.202 176.352C612.202 180.972 612.221 184.302 612.26 186.342C615.609 186.073 619.613 185.495 624.271 184.61L625.253 190.962C621.98 192.463 618.111 193.214 613.646 193.214L604.753 192.406ZM628.906 175.139C629.484 172.136 630.581 169.596 632.198 167.517C633.815 165.399 635.932 164.341 638.55 164.341C641.168 164.341 643.093 165.438 644.325 167.632C645.595 169.788 646.23 172.868 646.23 176.872C646.23 180.875 645.999 186.4 645.537 193.445L640.686 193.041L640.225 191.193C638.415 192.232 636.567 192.752 634.681 192.752C632.794 192.752 631.235 192.136 630.003 190.904C628.771 189.634 628.155 187.824 628.155 185.476C628.155 183.128 629.31 181.106 631.62 179.413C633.969 177.719 636.663 176.833 639.705 176.756V175.197C639.705 172.156 638.973 170.635 637.51 170.635C636.779 170.635 636.105 171.155 635.489 172.194C634.912 173.195 634.488 174.35 634.219 175.659L628.906 175.139ZM634.046 185.822C634.046 187.054 634.777 187.67 636.24 187.67C637.241 187.67 638.3 187.439 639.416 186.977L639.532 182.127C637.722 182.281 636.355 182.743 635.431 183.513C634.508 184.244 634.046 185.014 634.046 185.822ZM662.552 171.328C660.935 171.328 659.723 173.368 658.914 177.449C658.991 180.144 659.03 182.723 659.03 185.187C659.03 187.651 658.953 190.423 658.799 193.503L652.1 192.925C652.216 187.266 652.273 184.148 652.273 183.57C652.273 176.448 651.927 171.001 651.234 167.228L655.565 167.69C655.834 168.806 656.142 169.788 656.489 170.635C658.375 166.593 660.281 164.572 662.206 164.572C663.784 164.572 665.17 165.265 666.364 166.65L664.862 171.963C664.246 171.54 663.476 171.328 662.552 171.328ZM677.438 150.481C676.861 160.221 676.572 168.999 676.572 176.814C676.572 184.629 676.668 190.115 676.861 193.272L670.047 192.637C669.893 188.633 669.816 182.954 669.816 175.601C669.816 168.21 670.105 159.663 670.682 149.962L677.438 150.481ZM696.341 163.243L701.884 166.477C698.689 176.371 695.417 189.499 692.067 205.861L685.715 205.283C686.331 202.242 687.351 198.046 688.776 192.694C685.08 185.611 682.751 176.679 681.788 165.9L688.256 166.535C688.833 173.619 689.757 179.663 691.028 184.668C692.799 176.429 694.57 169.288 696.341 163.243Z" fill="white"/>
<path d="M548.29 209.005C552.795 207.619 556.856 206.926 560.475 206.926C564.132 206.926 567.231 207.907 569.772 209.871C572.313 211.796 573.584 214.183 573.584 217.031C573.584 221.305 571.197 224.692 566.423 227.195C570.889 229.004 573.122 232.026 573.122 236.261C573.122 239.379 571.485 242.171 568.213 244.634C564.941 247.06 561.514 248.273 557.934 248.273C557.472 248.273 554.181 248.003 548.059 247.464C548.598 239.187 548.868 232.219 548.868 226.56C548.868 220.9 548.675 215.049 548.29 209.005ZM565.788 217.84C565.788 216.685 565.21 215.722 564.055 214.952C562.939 214.144 561.726 213.74 560.417 213.74C559.147 213.74 557.78 213.971 556.317 214.433C556.471 219.053 556.548 222.537 556.548 224.885C558.319 224.731 560.302 223.942 562.496 222.517C564.69 221.054 565.788 219.495 565.788 217.84ZM559.205 241.227C560.475 241.227 561.822 240.727 563.247 239.726C564.671 238.687 565.383 237.512 565.383 236.203C565.383 234.856 564.556 233.682 562.9 232.681C561.245 231.68 559.108 231.064 556.49 230.833C556.413 235.376 556.336 238.783 556.259 241.054C556.952 241.17 557.934 241.227 559.205 241.227ZM578.286 219.861L584.869 220.496V248.215L578.286 247.58V219.861ZM578.748 209.698L585.216 210.448L584.638 216.916L578.171 216.107L578.748 209.698ZM601.751 226.56C600.134 226.56 598.921 228.6 598.112 232.681C598.189 235.376 598.228 237.955 598.228 240.419C598.228 242.883 598.151 245.655 597.997 248.734L591.298 248.157C591.414 242.498 591.472 239.379 591.472 238.802C591.472 231.68 591.125 226.232 590.432 222.46L594.763 222.922C595.033 224.038 595.341 225.02 595.687 225.867C597.573 221.824 599.479 219.803 601.404 219.803C602.982 219.803 604.368 220.496 605.562 221.882L604.06 227.195C603.444 226.771 602.674 226.56 601.751 226.56ZM619.755 221.247L619.813 214.086C619.813 211.43 619.755 208.408 619.639 205.02L626.396 205.597C626.473 208.331 626.511 213.297 626.511 220.496C626.511 227.657 626.203 236.896 625.587 248.215L620.448 247.753C620.332 246.213 620.217 244.403 620.101 242.325C618.446 245.635 616.656 247.291 614.731 247.291C611.767 247.291 609.707 246.367 608.552 244.519C607.397 242.671 606.82 239.995 606.82 236.492C606.82 232.95 607.57 229.293 609.072 225.52C610.612 221.747 612.344 219.861 614.269 219.861C616.001 219.861 617.83 220.323 619.755 221.247ZM619.928 226.617C618.966 225.886 618.003 225.52 617.041 225.52C616.117 225.52 615.308 226.771 614.615 229.274C613.923 231.738 613.576 234.317 613.576 237.012C613.576 239.707 614.23 241.054 615.539 241.054C616.04 241.054 616.714 240.226 617.561 238.571C618.408 236.877 619.177 234.74 619.87 232.161L619.928 226.617Z" fill="white"/>
</g>
<defs>
<radialGradient id="paint0_radial_25_5" cx="0" cy="0" r="1" gradientUnits="userSpaceOnUse" gradientTransform="translate(400 400) scale(527.16)">
<stop stop-color="white"/>
<stop offset="0.5146" stop-color="#F2F1E1"/>
<stop offset="1" stop-color="#E4E2C1"/>
</radialGradient>
<radialGradient id="paint1_radial_25_5" cx="0" cy="0" r="1" gradientUnits="userSpaceOnUse" gradientTransform="translate(318.312 710.153) rotate(180) scale(121.948 24.8408)">
<stop stop-color="#688D77" stop-opacity="0.8"/>
<stop offset="0.1234" stop-color="#759883" stop-opacity="0.7013"/>
<stop offset="0.4952" stop-color="#98B4A1" stop-opacity="0.4039"/>
<stop offset="0.8007" stop-color="#ADC5B4" stop-opacity="0.1594"/>
<stop offset="1" stop-color="#B5CBBB" stop-opacity="0"/>
</radialGradient>
<linearGradient id="paint2_linear_25_5" x1="109.383" y1="791.688" x2="470.865" y2="247.216" gradientUnits="userSpaceOnUse">
<stop stop-color="#33B8B8"/>
<stop offset="0.299" stop-color="#62C8B6"/>
<stop offset="0.849" stop-color="#E8AF42"/>
</linearGradient>
<linearGradient id="paint3_linear_25_5" x1="414.762" y1="515.066" x2="-11.2168" y2="414.571" gradientUnits="userSpaceOnUse">
<stop stop-color="#00A6A6"/>
<stop offset="0.284" stop-color="#12ACAC"/>
<stop offset="0.539" stop-color="#E1B137"/>
<stop offset="1" stop-color="#F37602"/>
</linearGradient>
<linearGradient id="paint4_linear_25_5" x1="503.909" y1="428.818" x2="287.92" y2="721.303" gradientUnits="userSpaceOnUse">
<stop stop-color="#91EEEE"/>
<stop offset="0.644" stop-color="#E4B978"/>
<stop offset="1" stop-color="#D07913"/>
</linearGradient>
<linearGradient id="paint5_linear_25_5" x1="592.465" y1="67.2218" x2="591.673" y2="313.675" gradientUnits="userSpaceOnUse">
<stop offset="0.0939996" stop-color="#02EFEF"/>
<stop offset="0.364" stop-color="#2CD7C7"/>
<stop offset="0.584" stop-color="#919C69"/>
<stop offset="1" stop-color="#E88A33"/>
</linearGradient>
<clipPath id="clip0_25_5">
<rect width="800" height="800" fill="white"/>
</clipPath>
</defs>
</svg>
